<?xml version="1.0" encoding="UTF-8"?>
<svg id="Capa_1" xmlns="http://www.w3.org/2000/svg" version="1.1" viewBox="0 0 792 612">
  <!-- Generator: Adobe Illustrator 30.1.0, SVG Export Plug-In . SVG Version: 2.1.1 Build 136)  -->
  <defs>
    <style>
      .st0 {
        fill: #284960;
      }
    </style>
  </defs>
  <path class="st0" d="M585.96,381.59c-23.92,82.33-99.93,142.49-189.96,142.49s-166.04-60.15-189.96-142.49l31.06-10.48c19.53,69.36,83.28,120.24,158.9,120.24s139.38-50.88,158.9-120.24l31.06,10.48Z"/>
  <path class="st0" d="M586.42,272.66l-31.29,9.63c-19.23-69.79-83.22-121.06-159.13-121.06s-139.9,51.27-159.13,121.06l-31.29-9.63c23.36-83.19,99.76-144.16,190.42-144.16s167.06,60.97,190.42,144.16Z"/>
  <path class="st0" d="M506.25,392.31c-22.44,37.42-63.43,62.48-110.25,62.48s-87.81-25.06-110.25-62.48l43.21-14.58c15.4,20.12,39.71,33.09,67.03,33.09s51.64-12.97,67.03-33.09l43.21,14.58Z"/>
  <path class="st0" d="M507.62,262.6l-43.67,13.43c-15.37-20.8-40.07-34.3-67.95-34.3s-52.59,13.5-67.95,34.3l-43.67-13.43c22.15-38.73,63.82-64.81,111.62-64.81s89.48,26.08,111.62,64.81Z"/>
  <path class="st0" d="M296.18,377.73l-43.21,14.58c-11.6-19.3-18.25-41.87-18.25-66.02s6.13-44.92,16.87-63.69l43.67,13.43c-10.42,14.06-16.58,31.45-16.58,50.26s6.52,37.19,17.5,51.44Z"/>
  <path class="st0" d="M204.31,371.11l-31.06,10.48c-5.11-17.56-7.83-36.11-7.83-55.3s2.56-36.56,7.37-53.63l31.29,9.63c-3.87,14.02-5.93,28.77-5.93,44s2.16,30.57,6.16,44.82Z"/>
  <path class="st0" d="M557.28,326.29c0,24.15-6.65,46.72-18.25,66.02l-43.21-14.58c10.98-14.25,17.5-32.11,17.5-51.44s-6.16-36.2-16.58-50.26l43.67-13.43c10.75,18.77,16.87,40.53,16.87,63.69Z"/>
  <path class="st0" d="M626.58,326.29c0,19.2-2.72,37.74-7.83,55.3l-31.06-10.48c4-14.25,6.16-29.29,6.16-44.82s-2.06-29.98-5.93-44l31.29-9.63c4.82,17.07,7.37,35.06,7.37,53.63Z"/>
</svg>