<?xml version="1.0" encoding="UTF-8"?>
<svg id="Capa_1" xmlns="http://www.w3.org/2000/svg" version="1.1" viewBox="0 0 792 612">
  <!-- Generator: Adobe Illustrator 30.0.0, SVG Export Plug-In . SVG Version: 2.1.1 Build 123)  -->
  <defs>
    <style>
      .st0 {
        fill: #284960;
      }
    </style>
  </defs>
  <g>
    <path class="st0" d="M403.83,147.95c0-.17-.17-.33-.5-.33h-.5c-21.25,0-208.97,81.15-242.44,98.88-10.04,28.61-19.24,55.05-28.61,82.32,33.3,26.6,44.34,29.28,100.22,44.34,7.7,2.01,21.75,3.35,35.14,3.35,7.19,0,14.22-.33,20.08-1.17,9.54-1.17,13.05-4.85,17.4-4.85,1.17,0,2.34.33,3.68.84,2.01,1.51,2.84,3.68,2.84,6.02,0,6.19-5.52,13.22-10.04,13.22-1,0-2.17-.33-3.01-1.34-61.74-6.02-119.63-14.72-168.65-53.54-14.89,43.5-22.25,79.81-27.11,96.87-.84,3.68-3.51,5.19-6.02,5.19-3.01,0-5.86-2.01-5.86-4.85,0-.5,0-1.17.33-1.84,5.02-17.4,17.74-55.38,33.13-99.89-11.88-9.7-21.92-18.4-28.78-25.77-2.34-2.51-3.85-5.19-4.18-8.03-.17-.67-.17-1.51-.17-2.18,0-21.58,48.69-47.68,65.25-56.38,10.88-31.29,36.98-92.86,36.98-127.16,0-2.01-.17-3.85-.33-5.69,2.01-4.18,5.19-6.19,8.03-6.19,3.51,0,6.53,3.01,6.53,9.03,0,2.68-.5,5.69-1.84,9.37l-40.66,115.95c33.63-17.4,210.65-93.19,238.25-93.19h1c5.69.5,7.86,2.34,7.86,4.85,0,8.37-22.75,24.43-22.75,24.6-1.17.5-2.17.67-3.01.67-3.01,0-4.85-2.34-4.85-4.52,0-.84.33-1.67.84-2.34,0,0,21.75-13.89,21.75-16.23ZM97.48,295.35v.84c.33,1.67,1.17,3.18,2.51,4.52,6.36,6.86,15.39,14.89,26.27,23.59,8.37-24.26,16.4-47.35,25.43-72.95-11.21,6.02-54.21,31.46-54.21,44Z"/>
    <path class="st0" d="M274.83,306.39c0,3.51,1.17,5.69,3.68,5.69.33,0,.84-.17,1.17-.17,10.04-2.68,36.31-39.82,36.81-49.19.5-3.35,2.17-4.68,3.85-4.68,3.01,0,6.53,3.85,6.53,8.2,0,.17-3.01,12.88-3.01,24.09,0,7.03,1.17,13.22,5.02,15.23.67.33,1.67.5,2.68.5,13.38,0,50.36-29.95,50.53-30.12.84-.5,1.67-.84,2.34-.84,2.01,0,3.51,1.84,3.51,4.02,0,.5-.17,1-.33,1.67,0,.17-36.98,29.61-55.55,29.61-2.01,0-3.85-.33-5.35-1.17-7.19-3.85-9.04-14.05-9.04-23.93v-1.34c-8.87,15.39-25.6,37.48-38.82,37.48-1.67,0-3.35-.33-4.85-1.17-5.69-3.01-7.86-9.2-7.86-16.73,0-20.41,15.56-50.36,15.56-50.53,1-3.01,3.51-4.35,6.02-4.35,4.02,0,8.2,3.18,8.2,7.53,0,.5,0,1-.17,1.67-12.88,19.41-20.91,38.98-20.91,48.52Z"/>
    <path class="st0" d="M388.27,296.19c9.37-12.21,18.91-22.75,26.27-22.75,3.35,0,6.19,2.01,8.37,6.69,7.36,16.9,16.23,23.42,26.44,23.42,13.22,0,28.94-11.21,46.85-24.26.67-.84,1.5-1,2.17-1,1.67,0,3.18,1.67,3.18,3.18,0,.84-.5,1.67-1.51,2.18-13.38,10.54-33.46,25.6-51.7,25.6-11.38,0-22.09-5.86-29.78-22.92-.5-1.51-1.34-2.17-2.34-2.17-8.53,0-33.13,34.47-33.46,37.98-1,2.17-4.18,3.35-6.86,3.35-2.34,0-4.35-1-4.35-3.18v-.67l16.23-64.92c.84-3.35,3.35-4.85,5.86-4.85,3.01,0,6.02,2.18,6.02,6.02v.33l-11.38,37.98Z"/>
    <path class="st0" d="M582.19,213.37c27.27-45.84,56.38-92.86,67.76-98.88,1.51-1.17,3.18-1.67,5.02-1.67,4.18,0,8.37,3.01,8.37,8.7,0,.67,0,1.34-.17,2.18-4.69,25.1-15.23,59.4-24.93,82.15,12.88-1.17,74.12-9.54,91.35-9.54,2.01,0,3.35.17,4.02.33.84,1,1.17,1.84,1.17,2.84,0,5.69-13.05,10.54-13.22,10.71-.67.33-1.34.5-1.84.5-2.34,0-4.35-2.01-4.35-4.18,0-.67.17-1.17.33-1.84,0,0-40.66.67-78.8,5.35-.5.84-1.17,2.01-1.84,3.35-9.87,23.26-51.87,143.39-51.87,199.1,0,17.07,3.85,28.11,13.72,28.61,2.17.17,3.01,1.51,3.01,2.84,0,1.84-1.34,3.85-3.18,3.85-.33,0-.67,0-1-.17-10.21-4.02-14.22-19.74-14.22-41.66,0-57.89,27.94-158.28,41.16-194.08-11.54.67-24.59,2.01-37.81,3.68-21.75,37.65-38.48,75.96-58.56,113.44,3.01,5.52,4.52,11.04,4.52,16.56,0,10.71-5.86,20.58-19.07,26.6-2.51,1.51-7.2,3.51-10.54,3.51-1,0-1.84-.33-2.51-.84-1.17-.84-1.67-2.18-1.67-4.18,0-9.2,11.21-29.78,20.58-43.17-6.69-16.56-21.75-32.29-21.75-49.86v-.5c.17-15.06,13.39-30.28,27.44-30.28,2.01,0,3.85.33,5.86,1,5.86,1.84,7.86,7.36,7.86,13.89,0,12.38-7.36,28.44-7.36,28.61-.5,1.67-2.84,2.68-5.19,2.68-2.84,0-5.69-1.34-5.69-4.02v-.5c0-.17,6.02-7.53,8.7-13.39,2.68-5.69,4.52-11.54,4.52-16.23,0-4.02-1.17-7.03-4.52-8.03-1-.33-2.17-.5-3.51-.5-9.87,0-23.26,11.38-23.42,22.42v.67c0,18.91,13.89,29.95,21.42,45.84,8.03-14.89,32.79-59.56,58.56-103.06-29.45,3.85-58.73,8.7-72.11,8.7-4.52,0-7.19-.5-7.7-1.84,0-.33-.17-.67-.17-1,0-2.51,3.35-5.02,5.35-5.35h.5c2.34,0,7.19,1,7.19,5.02,0,.5-.17,1-.33,1.67h1.67c12.38,0,36.14-4.85,67.26-10.04ZM504.89,367.63c11.38-4.35,17.74-13.05,17.74-22.75,0-3.01-.67-6.02-2.01-9.2-5.19,9.37-14.39,25.1-15.73,31.96ZM624.52,207.18l.33-.17c3.51-8.7,22.75-67.59,22.75-78.64,0-1-.33-1.67-.67-1.67-.17,0-.5,0-.84.33-11.04,9.7-31.79,37.81-59.56,85.66,11.71-2.01,24.43-3.85,37.98-5.52Z"/>
  </g>
  <g>
    <path class="st0" d="M336.72,427.88c-4.55-1.93-6.66-6.04-6.66-12.61v-1.14c0-9.81,4.73-15.15,14.37-15.15h11.04v8.76h-10.86c-3.07,0-4.91,1.58-4.91,5.96v3.77c0,4.91,2.19,6.48,5.78,6.48h4.2v-6.83h9.64v6.83h2.54v8.76h-2.54v20.15c0,2.98.09,5.17,1.05,7.45h-9.81c-.44-1.23-.7-2.1-.88-4.82-1.66,3.59-4.64,5.52-8.93,5.52-7.1,0-10.69-4.99-10.69-14.02v-6.22c0-6.22,1.93-10.77,6.66-12.88ZM344.69,452.23c2.89,0,4.82-1.49,4.99-5.34v-14.19h-3.68c-4.38,0-6.31,2.1-6.31,7.8v5.69c0,4.38,1.93,6.04,4.99,6.04Z"/>
    <path class="st0" d="M379.82,398.97h15.24c9.64,0,14.37,5.34,14.37,15.15v31.01c0,9.81-4.73,15.15-14.37,15.15h-15.24v-61.32ZM389.45,407.73v43.8h5.43c3.07,0,4.91-1.58,4.91-5.96v-31.89c0-4.38-1.84-5.96-4.91-5.96h-5.43Z"/>
    <path class="st0" d="M425.19,424.81h13.23v8.76h-13.23v17.96h16.64v8.76h-26.28v-61.32h26.28v8.76h-16.64v17.08Z"/>
    <path class="st0" d="M460.76,398.27c9.37,0,14.19,5.61,14.19,15.42v1.93h-9.11v-2.54c0-4.38-1.75-6.04-4.82-6.04s-4.82,1.66-4.82,6.04c0,12.61,18.83,14.98,18.83,32.5,0,9.81-4.91,15.42-14.37,15.42s-14.37-5.61-14.37-15.42v-3.77h9.11v4.38c0,4.38,1.93,5.96,4.99,5.96s4.99-1.58,4.99-5.96c0-12.61-18.83-14.98-18.83-32.5,0-9.81,4.82-15.42,14.19-15.42Z"/>
    <path class="st0" d="M480.55,398.97h9.64v61.32h-9.64v-61.32Z"/>
    <path class="st0" d="M511.65,426.13h13.49v19.45c0,9.81-4.91,15.42-14.37,15.42s-14.37-5.61-14.37-15.42v-31.89c0-9.81,4.91-15.42,14.37-15.42s14.37,5.61,14.37,15.42v5.96h-9.11v-6.57c0-4.38-1.93-6.04-4.99-6.04s-4.99,1.66-4.99,6.04v33.11c0,4.38,1.93,5.96,4.99,5.96s4.99-1.58,4.99-5.96v-11.3h-4.38v-8.76Z"/>
    <path class="st0" d="M539.95,415.88v44.41h-8.67v-61.32h12.09l9.9,36.7v-36.7h8.58v61.32h-9.9l-12-44.41Z"/>
  </g>
</svg>