<?xml version="1.0" encoding="UTF-8"?>
<svg id="Capa_1" xmlns="http://www.w3.org/2000/svg" version="1.1" viewBox="0 0 792 612">
  <!-- Generator: Adobe Illustrator 30.1.0, SVG Export Plug-In . SVG Version: 2.1.1 Build 136)  -->
  <defs>
    <style>
      .st0 {
        fill: #004761;
      }
    </style>
  </defs>
  <g>
    <path class="st0" d="M370.93,378.44c-9.15,5.31-19.18,7.97-29.06,7.97-24.19,0-45.73-16.82-45.73-42.34h.15v-4.72c0-3.25-2.51-5.46-5.61-5.46-1.18,0-2.51.29-3.69,1.03l-2.95,1.77v42.19h-16.52v-103.11h16.52v44.55l4.57-3.25c3.54-2.51,5.31-4.72,5.31-8.41v-32.9h16.52v33.49c0,8.11-3.69,13.87-11.21,18.59,7.82-.15,13.57,4.43,13.57,11.65v4.57h-.15c0,16.23,14.46,25.82,29.36,25.82,6.79,0,14.01-1.92,20.65-5.75l8.26,14.31ZM321.8,338.02v-62.25h16.52v63.43c0,3.39,2.66,6.05,6.05,6.05s6.05-2.66,6.05-6.05v-63.43h16.67v62.25c0,12.54-10.33,22.57-22.72,22.57s-22.57-10.03-22.57-22.57Z"/>
    <path class="st0" d="M421.53,296.86v82.02h-16.52v-82.9c0-3.39-2.8-6.05-6.2-6.05s-6.05,2.66-6.05,6.05v82.9h-16.52v-82.02c0-12.39,10.18-22.57,22.57-22.57s22.72,10.03,22.72,22.57Z"/>
    <path class="st0" d="M457.96,316.04v-19.77c0-3.54-2.95-6.49-6.49-6.49s-6.49,2.95-6.49,6.49v9.88c0,3.1,1.62,6.2,4.13,8.11l16.37,11.95c5.16,3.69,8.26,9.74,8.26,16.08v15.78c0,12.39-10.18,22.57-22.72,22.57s-22.57-10.18-22.57-22.57v-20.21l15.78-3.1v24.04c0,3.54,2.95,6.49,6.49,6.49s6.49-2.95,6.49-6.49v-12.24c0-3.98-1.92-7.67-5.16-9.88l-13.87-9.88c-6.05-4.43-9.74-11.51-9.74-19.03v-10.92c0-12.54,10.18-22.72,22.57-22.72s22.72,10.18,22.72,22.72v16.08l-15.78,3.1Z"/>
    <path class="st0" d="M525.97,330.05v27.73c0,12.54-10.18,22.57-22.72,22.57s-22.57-10.03-22.57-22.57v-82.02h16.52v29.06h21.39l-.06,15.64h-21.33v38.21c0,1.77.74,3.39,1.92,4.57,1.18,1.03,2.8,1.77,4.57,1.77,3.54,0,6.49-2.8,6.49-6.34v-28.55l15.78-.06Z"/>
  </g>
  <g>
    <path class="st0" d="M299.55,424.15h5.82v11.02h-5.82v30.68h-16.02c-8.74,0-15.91-7.18-15.91-15.91v-8.22c0-5.1,2.7-9.67,7.07-12.27-4.37-2.18-7.07-6.66-7.07-11.54v-9.98c0-4.37,1.77-8.32,4.68-11.23s7.07-4.78,11.65-4.68c8.74.21,15.6,7.59,15.6,16.23v5.1l-11.13,2.18v-7.91c0-2.39-2.08-4.58-4.47-4.58-2.6,0-4.68,2.18-4.68,4.68v13.94c0,1.35,1.14,2.5,2.6,2.5h6.55v-3.54l11.13-2.18v5.72ZM288.42,435.18h-6.55c-1.46,0-2.6,1.14-2.6,2.6v12.69c0,2.39,2.08,4.58,4.47,4.58h4.68v-19.87Z"/>
    <path class="st0" d="M361.02,405.85v47.32c0,6.97-5.72,12.69-12.69,12.69h-19.24v-72.7h19.24c6.97,0,12.69,5.62,12.69,12.69ZM349.37,406.99c0-1.56-1.35-2.91-2.91-2.91h-5.72v50.76h5.72c1.56,0,2.91-1.25,2.91-2.91v-44.93Z"/>
    <path class="st0" d="M398.25,408.03v16.33l-6.45,1.25-13.83,3.12v23.09c0,2.5,2.08,4.47,4.58,4.47s4.58-1.98,4.58-4.47v-19.24l11.13-2.18v20.8c0,8.84-7.18,16.02-16.02,16.02s-15.91-7.18-15.91-16.02v-43.16c0-8.84,7.18-15.91,15.91-15.91s16.02,7.07,16.02,15.91ZM387.12,407.72c0-2.6-2.08-4.58-4.58-4.58s-4.58,1.98-4.58,4.58v10.4l9.15-2.29v-8.11Z"/>
    <path class="st0" d="M423.63,421.55v-13.94c0-2.5-2.08-4.58-4.58-4.58s-4.58,2.08-4.58,4.58v6.97c0,2.18,1.14,4.37,2.91,5.72l11.54,8.42c3.64,2.6,5.83,6.86,5.83,11.34v11.13c0,8.74-7.18,15.91-16.02,15.91s-15.91-7.18-15.91-15.91v-14.25l11.13-2.18v16.95c0,2.5,2.08,4.58,4.58,4.58s4.58-2.08,4.58-4.58v-8.63c0-2.81-1.35-5.41-3.64-6.97l-9.78-6.97c-4.26-3.12-6.87-8.11-6.87-13.42v-7.7c0-8.84,7.18-16.02,15.91-16.02s16.02,7.18,16.02,16.02v11.34l-11.13,2.18Z"/>
    <path class="st0" d="M439.96,465.86v-72.7h11.65v72.7h-11.65Z"/>
    <path class="st0" d="M456.91,423.74v-17.47c0-7.28,5.93-13.1,13.11-13.1h18.83v30.58c0,8.74-7.18,15.91-16.02,15.91s-15.91-7.18-15.91-15.91ZM488.84,458.16v7.7h-11.65v-8.32c0-2.5-1.98-4.26-4.37-4.26s-4.26,1.87-4.26,4.26v8.32h-11.65v-7.7c0-8.74,7.18-15.91,15.91-15.91s16.02,7.07,16.02,15.91ZM468.56,424.67c0,2.29,1.87,4.16,4.16,4.16h.1c2.39,0,4.37-1.87,4.37-4.26v-20.49h-4.37c-2.29,0-4.26,1.98-4.26,4.37v16.22Z"/>
    <path class="st0" d="M525.87,408.03v57.83h-11.65v-58.45c0-2.39-1.98-4.26-4.37-4.26s-4.26,1.87-4.26,4.26v58.45h-11.65v-57.83c0-8.74,7.18-15.91,15.91-15.91s16.02,7.07,16.02,15.91Z"/>
  </g>
  <g>
    <path class="st0" d="M465.1,204.41c-8.61,29.63-35.96,51.28-68.36,51.28s-59.75-21.65-68.36-51.28l11.18-3.77c7.03,24.96,29.97,43.27,57.18,43.27s50.16-18.31,57.18-43.27l11.18,3.77Z"/>
    <path class="st0" d="M465.27,165.21l-11.26,3.47c-6.92-25.11-29.95-43.56-57.26-43.56s-50.34,18.45-57.26,43.56l-11.26-3.47c8.41-29.94,35.9-51.88,68.52-51.88s60.12,21.94,68.52,51.88Z"/>
    <path class="st0" d="M436.42,208.26c-8.08,13.46-22.83,22.48-39.67,22.48s-31.6-9.02-39.67-22.48l15.55-5.25c5.54,7.24,14.29,11.91,24.12,11.91s18.58-4.67,24.12-11.91l15.55,5.25Z"/>
    <path class="st0" d="M436.91,161.59l-15.72,4.83c-5.53-7.49-14.42-12.34-24.45-12.34s-18.92,4.86-24.45,12.34l-15.72-4.83c7.97-13.94,22.97-23.32,40.17-23.32s32.2,9.38,40.17,23.32Z"/>
    <path class="st0" d="M360.82,203.02l-15.55,5.25c-4.17-6.94-6.57-15.07-6.57-23.76s2.2-16.16,6.07-22.92l15.72,4.83c-3.75,5.06-5.97,11.32-5.97,18.09s2.35,13.38,6.3,18.51Z"/>
    <path class="st0" d="M327.76,200.64l-11.18,3.77c-1.84-6.32-2.82-12.99-2.82-19.9s.92-13.16,2.65-19.3l11.26,3.47c-1.39,5.05-2.13,10.35-2.13,15.83s.78,11,2.22,16.13Z"/>
    <path class="st0" d="M454.78,184.51c0,8.69-2.39,16.81-6.57,23.76l-15.55-5.25c3.95-5.13,6.3-11.55,6.3-18.51s-2.22-13.03-5.97-18.09l15.72-4.83c3.87,6.76,6.07,14.58,6.07,22.92Z"/>
    <path class="st0" d="M479.72,184.51c0,6.91-.98,13.58-2.82,19.9l-11.18-3.77c1.44-5.13,2.22-10.54,2.22-16.13s-.74-10.79-2.13-15.83l11.26-3.47c1.73,6.14,2.65,12.62,2.65,19.3Z"/>
  </g>
  <g>
    <path class="st0" d="M267.64,503.17v-24.89h9v1.81h-6.64v9.34h5.41v1.72h-5.41v10.26h6.7v1.75h-9.06Z"/>
    <path class="st0" d="M283.74,503.44c-1.41,0-2.54-.46-3.38-1.37-.84-.91-1.32-2.14-1.44-3.67l1.87-.55c.12,1.35.44,2.34.95,2.96.51.63,1.23.94,2.15.94.78,0,1.38-.22,1.8-.66.42-.44.63-1.06.63-1.86,0-.57-.18-1.15-.52-1.74s-.9-1.19-1.66-1.83l-2.4-2.09c-.8-.68-1.4-1.35-1.81-2.03-.41-.68-.62-1.48-.62-2.43,0-.86.18-1.58.54-2.16.36-.59.85-1.04,1.47-1.35.62-.32,1.37-.48,2.23-.48,1.35,0,2.38.44,3.07,1.31.7.87,1.08,1.99,1.14,3.37l-1.6.52c-.04-.8-.16-1.46-.37-1.98-.2-.52-.49-.91-.84-1.15s-.79-.37-1.31-.37c-.68,0-1.22.19-1.64.57-.42.38-.63.91-.63,1.58,0,.53.1,1,.31,1.41.2.41.58.87,1.14,1.38l2.52,2.24c.49.43.96.89,1.41,1.38.45.49.82,1.04,1.11,1.64.29.6.43,1.32.43,2.13,0,.92-.19,1.7-.57,2.32-.38.62-.91,1.11-1.58,1.44-.68.34-1.47.51-2.4.51Z"/>
    <path class="st0" d="M295.66,503.38c-.86,0-1.53-.17-2-.51s-.79-.8-.95-1.38c-.17-.59-.25-1.26-.25-2.01v-12.6h-2.18v-1.47h2.18v-5.5h2.24v5.5h2.95v1.47h-2.95v12.38c0,.86.1,1.47.29,1.83.2.36.62.54,1.28.54.18,0,.39-.02.62-.05.23-.03.44-.06.65-.08v1.69c-.31.06-.62.11-.94.14-.32.03-.63.05-.94.05Z"/>
    <path class="st0" d="M300.82,503.17v-17.76h2.27v2.43c.57-.94,1.23-1.61,1.97-2.01.74-.4,1.44-.6,2.12-.6h.18c.06,0,.13.01.21.03v2.4c-.14-.06-.32-.11-.52-.14-.21-.03-.4-.05-.58-.05-.7,0-1.33.17-1.89.49-.56.33-1.06.85-1.49,1.57v13.64h-2.27Z"/>
    <path class="st0" d="M313.35,503.44c-.7,0-1.31-.18-1.84-.54-.53-.36-.95-.83-1.26-1.43-.31-.59-.46-1.26-.46-2,0-.9.13-1.67.4-2.3.27-.63.68-1.2,1.24-1.7.56-.5,1.3-.99,2.21-1.48.91-.48,2.02-1.02,3.33-1.61v-1.26c0-1.09-.07-1.94-.2-2.57-.13-.63-.36-1.07-.68-1.34-.32-.27-.76-.4-1.34-.4-.47,0-.89.09-1.26.28s-.67.5-.89.94c-.23.44-.34,1.05-.34,1.83v.62l-2.21-.03c.02-1.8.4-3.14,1.15-4.01.75-.87,1.97-1.31,3.67-1.31,1.58,0,2.69.48,3.35,1.43s.98,2.43.98,4.44v8.63c0,.31,0,.7.02,1.18s.03.94.06,1.37c.03.43.06.76.08.98h-2c-.06-.39-.13-.83-.2-1.31-.07-.48-.12-.86-.14-1.15-.25.72-.68,1.35-1.31,1.91-.63.55-1.42.83-2.38.83ZM314.09,501.54c.45,0,.86-.11,1.21-.32.36-.21.69-.49.98-.81.3-.33.53-.66.69-.98v-5.53c-.88.47-1.63.89-2.26,1.24-.63.36-1.13.71-1.52,1.06-.39.35-.68.74-.86,1.18-.18.44-.28.96-.28,1.55,0,.94.2,1.61.6,2.01.4.4.87.6,1.43.6Z"/>
    <path class="st0" d="M327.21,503.38c-.86,0-1.53-.17-2-.51s-.79-.8-.95-1.38c-.17-.59-.25-1.26-.25-2.01v-12.6h-2.18v-1.47h2.18v-5.5h2.24v5.5h2.95v1.47h-2.95v12.38c0,.86.1,1.47.29,1.83.2.36.62.54,1.28.54.18,0,.39-.02.62-.05.23-.03.44-.06.65-.08v1.69c-.31.06-.62.11-.94.14-.32.03-.63.05-.94.05Z"/>
    <path class="st0" d="M336.67,503.44c-1.11,0-2.01-.22-2.72-.66-.71-.44-1.23-1.17-1.57-2.2-.34-1.02-.51-2.39-.51-4.09v-4.49c0-1.76.17-3.14.52-4.13.35-.99.88-1.7,1.6-2.12.72-.42,1.61-.63,2.67-.63,1.27,0,2.23.27,2.89.8.65.53,1.11,1.34,1.37,2.41s.38,2.45.38,4.13v1.6h-7.19v3.1c0,1.15.09,2.05.26,2.72.17.66.45,1.14.83,1.43.38.29.86.43,1.46.43.45,0,.86-.09,1.23-.26.37-.17.66-.51.87-1.01.22-.5.32-1.21.32-2.14v-1.23h2.18v.98c0,1.62-.34,2.91-1.01,3.89-.68.97-1.88,1.46-3.6,1.46ZM334.13,492.78h4.98v-1.48c0-.94-.05-1.74-.15-2.41s-.32-1.18-.66-1.54c-.34-.36-.88-.54-1.61-.54-.61,0-1.11.13-1.49.4-.38.27-.65.74-.81,1.43-.16.69-.24,1.66-.24,2.93v1.2Z"/>
    <path class="st0" d="M349.49,509.01c-1.17,0-2.18-.11-3.04-.34-.86-.23-1.52-.58-1.98-1.06s-.69-1.09-.69-1.83c0-.6.14-1.14.43-1.63s.66-.93,1.11-1.31c.45-.38.91-.69,1.38-.94-.68-.18-1.17-.44-1.49-.75s-.48-.71-.48-1.18c0-.62.19-1.17.57-1.66.38-.49.9-1.01,1.55-1.57-.82-.57-1.4-1.31-1.74-2.21s-.51-1.97-.51-3.2c0-1.13.17-2.16.52-3.09s.89-1.68,1.63-2.26c.74-.57,1.68-.86,2.83-.86,1.04,0,1.86.21,2.46.65s1.05.96,1.35,1.6c.18-.31.5-.67.95-1.09s.93-.72,1.44-.91l.46-.18.62,1.57c-.33.06-.69.18-1.09.35-.4.17-.76.36-1.09.57-.33.2-.57.41-.74.61.14.37.27.87.38,1.51s.17,1.17.17,1.6c0,1.17-.16,2.22-.48,3.16-.32.94-.83,1.69-1.55,2.23-.72.54-1.67.81-2.86.81-.31,0-.63-.03-.97-.09-.34-.06-.62-.12-.84-.18-.31.31-.58.64-.83,1s-.37.7-.37,1.03c0,.29.12.51.35.66.24.15.61.27,1.12.35l2.83.4c1.43.23,2.53.66,3.3,1.31s1.15,1.58,1.15,2.81c0,.92-.25,1.69-.75,2.3-.5.61-1.19,1.07-2.07,1.37s-1.89.45-3.04.45ZM349.58,507.19c1.19,0,2.15-.18,2.89-.54s1.11-.94,1.11-1.74c0-.39-.09-.74-.26-1.06-.17-.32-.5-.59-.98-.8-.48-.21-1.19-.39-2.14-.54l-2.24-.31c-.31.21-.63.46-.98.75-.35.3-.65.63-.91,1-.26.37-.38.79-.38,1.26,0,.68.32,1.17.95,1.49.63.32,1.62.48,2.95.48ZM349.61,495.98c.66,0,1.17-.14,1.55-.41.38-.28.66-.64.86-1.09s.33-.95.4-1.51c.07-.55.11-1.1.11-1.63s-.04-1.07-.12-1.6c-.08-.53-.23-1.03-.43-1.49-.2-.46-.5-.83-.87-1.11-.38-.28-.88-.41-1.49-.41s-1.12.14-1.52.43c-.4.29-.71.66-.92,1.12-.21.46-.36.96-.45,1.51-.08.54-.12,1.06-.12,1.55s.04,1.01.11,1.57c.07.55.21,1.06.43,1.52.21.46.52.84.92,1.12s.92.43,1.55.43Z"/>
    <path class="st0" d="M359.08,482.95v-3.04h2.24v3.04h-2.24ZM359.08,503.17v-17.76h2.24v17.76h-2.24Z"/>
    <path class="st0" d="M368.75,503.44c-.7,0-1.31-.18-1.84-.54-.53-.36-.95-.83-1.26-1.43-.31-.59-.46-1.26-.46-2,0-.9.13-1.67.4-2.3.27-.63.68-1.2,1.24-1.7.56-.5,1.3-.99,2.21-1.48.91-.48,2.02-1.02,3.33-1.61v-1.26c0-1.09-.07-1.94-.2-2.57-.13-.63-.36-1.07-.68-1.34-.32-.27-.76-.4-1.34-.4-.47,0-.89.09-1.26.28s-.67.5-.89.94c-.23.44-.34,1.05-.34,1.83v.62l-2.21-.03c.02-1.8.4-3.14,1.15-4.01.75-.87,1.97-1.31,3.67-1.31,1.58,0,2.69.48,3.35,1.43s.98,2.43.98,4.44v8.63c0,.31,0,.7.02,1.18s.03.94.06,1.37c.03.43.06.76.08.98h-2c-.06-.39-.13-.83-.2-1.31-.07-.48-.12-.86-.14-1.15-.25.72-.68,1.35-1.31,1.91-.63.55-1.42.83-2.38.83ZM369.49,501.54c.45,0,.86-.11,1.21-.32.36-.21.69-.49.98-.81.3-.33.53-.66.69-.98v-5.53c-.88.47-1.63.89-2.26,1.24-.63.36-1.13.71-1.52,1.06-.39.35-.68.74-.86,1.18-.18.44-.28.96-.28,1.55,0,.94.2,1.61.6,2.01.4.4.87.6,1.43.6Z"/>
    <path class="st0" d="M384.91,507.59v-1.75c1.02,0,1.8-.08,2.32-.23.52-.15.87-.37,1.05-.65s.26-.6.26-.97c0-.33-.06-.76-.18-1.29-.12-.53-.26-1.09-.4-1.66l-3.66-15.64h2.21l3.1,15.12,2.98-15.12h2.24l-4.27,19.02c-.17.76-.46,1.37-.88,1.83s-.97.8-1.66,1.01c-.69.21-1.53.32-2.54.32h-.58Z"/>
    <path class="st0" d="M410.84,503.48c-1.68,0-2.97-.35-3.89-1.05-.91-.7-1.54-1.63-1.89-2.81-.35-1.18-.52-2.48-.52-3.92v-9.89c0-1.54.18-2.89.54-4.06s1-2.08,1.92-2.73c.92-.65,2.2-.98,3.84-.98,1.5,0,2.67.29,3.52.86.85.57,1.46,1.39,1.83,2.44s.55,2.31.55,3.76v1.5h-2.21v-1.44c0-1.08-.09-2.02-.26-2.79s-.53-1.38-1.06-1.81c-.53-.43-1.32-.65-2.37-.65-1.11,0-1.94.23-2.5.69-.56.46-.94,1.11-1.14,1.95-.19.84-.29,1.81-.29,2.92v10.6c0,1.23.12,2.25.35,3.07s.64,1.43,1.21,1.84,1.36.61,2.37.61,1.83-.23,2.37-.68.89-1.08,1.06-1.89c.17-.81.26-1.76.26-2.84v-1.63h2.21v1.47c0,1.46-.17,2.75-.51,3.87-.34,1.13-.93,2-1.78,2.63-.85.63-2.05.94-3.61.94Z"/>
    <path class="st0" d="M420.71,503.17v-17.76h2.27v2.43c.57-.94,1.23-1.61,1.97-2.01.74-.4,1.44-.6,2.12-.6h.18c.06,0,.13.01.21.03v2.4c-.14-.06-.32-.11-.52-.14-.21-.03-.4-.05-.58-.05-.7,0-1.33.17-1.89.49-.56.33-1.06.85-1.49,1.57v13.64h-2.27Z"/>
    <path class="st0" d="M434.66,503.44c-1.11,0-2.01-.22-2.72-.66-.71-.44-1.23-1.17-1.57-2.2-.34-1.02-.51-2.39-.51-4.09v-4.49c0-1.76.17-3.14.52-4.13.35-.99.88-1.7,1.6-2.12.72-.42,1.61-.63,2.67-.63,1.27,0,2.23.27,2.89.8.65.53,1.11,1.34,1.37,2.41s.38,2.45.38,4.13v1.6h-7.19v3.1c0,1.15.09,2.05.26,2.72.17.66.45,1.14.83,1.43.38.29.86.43,1.46.43.45,0,.86-.09,1.23-.26.37-.17.66-.51.87-1.01.22-.5.32-1.21.32-2.14v-1.23h2.18v.98c0,1.62-.34,2.91-1.01,3.89-.68.97-1.88,1.46-3.6,1.46ZM432.11,492.78h4.98v-1.48c0-.94-.05-1.74-.15-2.41s-.32-1.18-.66-1.54c-.34-.36-.88-.54-1.61-.54-.61,0-1.11.13-1.49.4-.38.27-.65.74-.81,1.43-.16.69-.24,1.66-.24,2.93v1.2Z"/>
    <path class="st0" d="M445.99,503.44c-.7,0-1.31-.18-1.84-.54-.53-.36-.95-.83-1.26-1.43-.31-.59-.46-1.26-.46-2,0-.9.13-1.67.4-2.3.27-.63.68-1.2,1.24-1.7.56-.5,1.3-.99,2.21-1.48.91-.48,2.02-1.02,3.33-1.61v-1.26c0-1.09-.07-1.94-.2-2.57-.13-.63-.36-1.07-.68-1.34-.32-.27-.76-.4-1.34-.4-.47,0-.89.09-1.26.28s-.67.5-.89.94c-.23.44-.34,1.05-.34,1.83v.62l-2.21-.03c.02-1.8.4-3.14,1.15-4.01.75-.87,1.97-1.31,3.67-1.31,1.58,0,2.69.48,3.35,1.43s.98,2.43.98,4.44v8.63c0,.31,0,.7.02,1.18s.03.94.06,1.37c.03.43.06.76.08.98h-2c-.06-.39-.13-.83-.2-1.31-.07-.48-.12-.86-.14-1.15-.25.72-.68,1.35-1.31,1.91-.63.55-1.42.83-2.38.83ZM446.73,501.54c.45,0,.86-.11,1.21-.32.36-.21.69-.49.98-.81.3-.33.53-.66.69-.98v-5.53c-.88.47-1.63.89-2.26,1.24-.63.36-1.13.71-1.52,1.06-.39.35-.68.74-.86,1.18-.18.44-.28.96-.28,1.55,0,.94.2,1.61.6,2.01.4.4.87.6,1.43.6Z"/>
    <path class="st0" d="M459.85,503.38c-.86,0-1.53-.17-2-.51s-.79-.8-.95-1.38c-.17-.59-.25-1.26-.25-2.01v-12.6h-2.18v-1.47h2.18v-5.5h2.24v5.5h2.95v1.47h-2.95v12.38c0,.86.1,1.47.29,1.83.2.36.62.54,1.28.54.18,0,.39-.02.62-.05.23-.03.44-.06.65-.08v1.69c-.31.06-.62.11-.94.14-.32.03-.63.05-.94.05Z"/>
    <path class="st0" d="M465.11,482.95v-3.04h2.24v3.04h-2.24ZM465.11,503.17v-17.76h2.24v17.76h-2.24Z"/>
    <path class="st0" d="M474.42,503.17l-3.84-17.76h2.27l2.89,15.18,2.86-15.18h2.18l-3.72,17.76h-2.64Z"/>
    <path class="st0" d="M483.88,482.95v-3.04h2.24v3.04h-2.24ZM483.88,503.17v-17.76h2.24v17.76h-2.24Z"/>
    <path class="st0" d="M494.45,503.44c-1.52,0-2.61-.57-3.27-1.72-.67-1.15-1-3.05-1-5.71v-3.29c0-1.56.11-2.9.34-4.03.23-1.13.64-2,1.24-2.63.6-.63,1.47-.94,2.6-.94.7,0,1.31.16,1.83.48.52.32.96.67,1.31,1.06v-8.39h2.24v24.89h-2.24v-1.26c-.35.39-.77.74-1.28,1.06-.5.32-1.09.48-1.77.48ZM494.91,501.69c.47,0,.93-.12,1.38-.35s.85-.52,1.2-.84v-12.35c-.31-.29-.69-.57-1.14-.84s-.95-.42-1.5-.42c-.98,0-1.63.44-1.95,1.31s-.48,2.15-.48,3.83v4.18c0,1.19.07,2.19.2,3.01.13.82.38,1.44.74,1.86s.88.63,1.55.63Z"/>
    <path class="st0" d="M506.86,503.44c-.7,0-1.31-.18-1.84-.54-.53-.36-.95-.83-1.26-1.43-.31-.59-.46-1.26-.46-2,0-.9.13-1.67.4-2.3.27-.63.68-1.2,1.24-1.7.56-.5,1.3-.99,2.21-1.48.91-.48,2.02-1.02,3.33-1.61v-1.26c0-1.09-.07-1.94-.2-2.57-.13-.63-.36-1.07-.68-1.34-.32-.27-.76-.4-1.34-.4-.47,0-.89.09-1.26.28s-.67.5-.89.94c-.23.44-.34,1.05-.34,1.83v.62l-2.21-.03c.02-1.8.4-3.14,1.15-4.01.75-.87,1.97-1.31,3.67-1.31,1.58,0,2.69.48,3.35,1.43s.98,2.43.98,4.44v8.63c0,.31,0,.7.02,1.18s.03.94.06,1.37c.03.43.06.76.08.98h-2c-.06-.39-.13-.83-.2-1.31-.07-.48-.12-.86-.14-1.15-.25.72-.68,1.35-1.31,1.91-.63.55-1.42.83-2.38.83ZM507.6,501.54c.45,0,.86-.11,1.21-.32.36-.21.69-.49.98-.81.3-.33.53-.66.69-.98v-5.53c-.88.47-1.63.89-2.26,1.24-.63.36-1.13.71-1.52,1.06-.39.35-.68.74-.86,1.18-.18.44-.28.96-.28,1.55,0,.94.2,1.61.6,2.01.4.4.87.6,1.43.6Z"/>
    <path class="st0" d="M520.56,503.44c-1.52,0-2.61-.57-3.27-1.72-.67-1.15-1-3.05-1-5.71v-3.29c0-1.56.11-2.9.34-4.03.23-1.13.64-2,1.24-2.63.6-.63,1.47-.94,2.6-.94.7,0,1.31.16,1.83.48.52.32.96.67,1.31,1.06v-8.39h2.24v24.89h-2.24v-1.26c-.35.39-.77.74-1.28,1.06-.5.32-1.09.48-1.77.48ZM521.02,501.69c.47,0,.93-.12,1.38-.35s.85-.52,1.2-.84v-12.35c-.31-.29-.69-.57-1.14-.84s-.95-.42-1.5-.42c-.98,0-1.63.44-1.95,1.31s-.48,2.15-.48,3.83v4.18c0,1.19.07,2.19.2,3.01.13.82.38,1.44.74,1.86s.88.63,1.55.63Z"/>
  </g>
</svg>